<mxfile host="app.diagrams.net" modified="2023-10-13T16:18:41.796Z" agent="Mozilla/5.0 (Windows NT 10.0; Win64; x64; rv:109.0) Gecko/20100101 Firefox/118.0" version="21.7.2" etag="PBpeEHoKcjnhAltB-IKX" type="github">
  <diagram name="Page-1" id="dgp2izpA0C_gRFz5YbmO">
    <mxGraphModel>
      <root>
        <mxCell id="0" />
        <mxCell id="1" parent="0" />
      </root>
    </mxGraphModel>
  </diagram>
</mxfile>
